<svg width="29" height="26" viewBox="0 0 29 26" fill="none" xmlns="http://www.w3.org/2000/svg">
    <path
        d="M14.2503 3.16669H4.75033C3.87587 3.16669 3.16699 3.87557 3.16699 4.75002V14.25C3.16699 15.1245 3.87587 15.8334 4.75033 15.8334H14.2503C15.1248 15.8334 15.8337 15.1245 15.8337 14.25V4.75002C15.8337 3.87557 15.1248 3.16669 14.2503 3.16669Z"
        stroke="#BBBBBB" stroke-linecap="round" stroke-linejoin="round" />
    <path d="M11.875 7.125H7.125V11.875H11.875V7.125Z" stroke="#BBBBBB" stroke-linecap="round"
        stroke-linejoin="round" />
    <path d="M11.875 1.58331V3.16665" stroke="#BBBBBB" stroke-linecap="round"
        stroke-linejoin="round" />
    <path d="M11.875 15.8333V17.4166" stroke="#BBBBBB" stroke-linecap="round"
        stroke-linejoin="round" />
    <path d="M1.58301 11.875H3.16634" stroke="#BBBBBB" stroke-linecap="round"
        stroke-linejoin="round" />
    <path d="M1.58301 7.125H3.16634" stroke="#BBBBBB" stroke-linecap="round" stroke-linejoin="round" />
    <path d="M15.833 11.875H17.4163" stroke="#BBBBBB" stroke-linecap="round" stroke-linejoin="round" />
    <path d="M15.833 7.125H17.4163" stroke="#BBBBBB" stroke-linecap="round" stroke-linejoin="round" />
    <path d="M7.125 1.58331V3.16665" stroke="#BBBBBB" stroke-linecap="round" stroke-linejoin="round" />
    <path d="M7.125 15.8333V17.4166" stroke="#BBBBBB" stroke-linecap="round" stroke-linejoin="round" />
    <rect x="9" y="6" width="11" height="15" fill="#FCFCFD" />
    <path
        d="M24.2503 10.1667H14.7503C13.8759 10.1667 13.167 10.8756 13.167 11.75V21.25C13.167 22.1245 13.8759 22.8334 14.7503 22.8334H24.2503C25.1248 22.8334 25.8337 22.1245 25.8337 21.25V11.75C25.8337 10.8756 25.1248 10.1667 24.2503 10.1667Z"
        stroke="#BBBBBB" stroke-linecap="round" stroke-linejoin="round" />
    <path d="M21.875 14.125H17.125V18.875H21.875V14.125Z" stroke="#BBBBBB" stroke-linecap="round"
        stroke-linejoin="round" />
    <path d="M21.875 8.58331V10.1666" stroke="#BBBBBB" stroke-linecap="round"
        stroke-linejoin="round" />
    <path d="M21.875 22.8333V24.4166" stroke="#BBBBBB" stroke-linecap="round"
        stroke-linejoin="round" />
    <path d="M11.583 18.875H13.1663" stroke="#BBBBBB" stroke-linecap="round" stroke-linejoin="round" />
    <path d="M11.583 14.125H13.1663" stroke="#BBBBBB" stroke-linecap="round" stroke-linejoin="round" />
    <path d="M25.833 18.875H27.4163" stroke="#BBBBBB" stroke-linecap="round" stroke-linejoin="round" />
    <path d="M25.833 14.125H27.4163" stroke="#BBBBBB" stroke-linecap="round" stroke-linejoin="round" />
    <path d="M17.125 8.58331V10.1666" stroke="#BBBBBB" stroke-linecap="round"
        stroke-linejoin="round" />
    <path d="M17.125 22.8333V24.4166" stroke="#BBBBBB" stroke-linecap="round"
        stroke-linejoin="round" />
</svg>