<svg width="29" height="26" viewBox="0 0 29 26" fill="none" xmlns="http://www.w3.org/2000/svg">
<path d="M14.2503 3.1665H4.75033C3.87587 3.1665 3.16699 3.87538 3.16699 4.74983V14.2498C3.16699 15.1243 3.87587 15.8332 4.75033 15.8332H14.2503C15.1248 15.8332 15.8337 15.1243 15.8337 14.2498V4.74983C15.8337 3.87538 15.1248 3.1665 14.2503 3.1665Z" stroke="#BBBBBB" stroke-linecap="round" stroke-linejoin="round"/>
<path d="M11.875 7.125H7.125V11.875H11.875V7.125Z" stroke="#BBBBBB" stroke-linecap="round" stroke-linejoin="round"/>
<path d="M11.875 1.5835V3.16684" stroke="#BBBBBB" stroke-linecap="round" stroke-linejoin="round"/>
<path d="M11.875 15.8335V17.4168" stroke="#BBBBBB" stroke-linecap="round" stroke-linejoin="round"/>
<path d="M1.58301 11.875H3.16634" stroke="#BBBBBB" stroke-linecap="round" stroke-linejoin="round"/>
<path d="M1.58301 7.125H3.16634" stroke="#BBBBBB" stroke-linecap="round" stroke-linejoin="round"/>
<path d="M15.833 11.875H17.4163" stroke="#BBBBBB" stroke-linecap="round" stroke-linejoin="round"/>
<path d="M15.833 7.125H17.4163" stroke="#BBBBBB" stroke-linecap="round" stroke-linejoin="round"/>
<path d="M7.125 1.5835V3.16684" stroke="#BBBBBB" stroke-linecap="round" stroke-linejoin="round"/>
<path d="M7.125 15.8335V17.4168" stroke="#BBBBBB" stroke-linecap="round" stroke-linejoin="round"/>
<path d="M20 6H9V21H20V6Z" fill="black"/>
<path d="M24.2503 10.1665H14.7503C13.8759 10.1665 13.167 10.8754 13.167 11.7498V21.2498C13.167 22.1243 13.8759 22.8332 14.7503 22.8332H24.2503C25.1248 22.8332 25.8337 22.1243 25.8337 21.2498V11.7498C25.8337 10.8754 25.1248 10.1665 24.2503 10.1665Z" stroke="#BBBBBB" stroke-linecap="round" stroke-linejoin="round"/>
<path d="M21.875 14.125H17.125V18.875H21.875V14.125Z" stroke="#BBBBBB" stroke-linecap="round" stroke-linejoin="round"/>
<path d="M21.875 8.5835V10.1668" stroke="#BBBBBB" stroke-linecap="round" stroke-linejoin="round"/>
<path d="M21.875 22.8335V24.4168" stroke="#BBBBBB" stroke-linecap="round" stroke-linejoin="round"/>
<path d="M11.583 18.875H13.1663" stroke="#BBBBBB" stroke-linecap="round" stroke-linejoin="round"/>
<path d="M11.583 14.125H13.1663" stroke="#BBBBBB" stroke-linecap="round" stroke-linejoin="round"/>
<path d="M25.833 18.875H27.4163" stroke="#BBBBBB" stroke-linecap="round" stroke-linejoin="round"/>
<path d="M25.833 14.125H27.4163" stroke="#BBBBBB" stroke-linecap="round" stroke-linejoin="round"/>
<path d="M17.125 8.5835V10.1668" stroke="#BBBBBB" stroke-linecap="round" stroke-linejoin="round"/>
<path d="M17.125 22.8335V24.4168" stroke="#BBBBBB" stroke-linecap="round" stroke-linejoin="round"/>
</svg>
