<svg width="19" height="20" viewBox="0 0 19 20" fill="none" xmlns="http://www.w3.org/2000/svg">
<path d="M14.2503 3.50671H4.75033C3.87587 3.50671 3.16699 4.2156 3.16699 5.09005V14.59C3.16699 15.4645 3.87587 16.1734 4.75033 16.1734H14.2503C15.1248 16.1734 15.8337 15.4645 15.8337 14.59V5.09005C15.8337 4.2156 15.1248 3.50671 14.2503 3.50671Z" stroke="#BBBBBB" stroke-linecap="round" stroke-linejoin="round"/>
<path d="M11.875 7.46503H7.125V12.215H11.875V7.46503Z" stroke="#BBBBBB" stroke-linecap="round" stroke-linejoin="round"/>
<path d="M11.875 1.92334V3.50667" stroke="#BBBBBB" stroke-linecap="round" stroke-linejoin="round"/>
<path d="M11.875 16.1733V17.7567" stroke="#BBBBBB" stroke-linecap="round" stroke-linejoin="round"/>
<path d="M1.58301 12.215H3.16634" stroke="#BBBBBB" stroke-linecap="round" stroke-linejoin="round"/>
<path d="M1.58301 7.46503H3.16634" stroke="#BBBBBB" stroke-linecap="round" stroke-linejoin="round"/>
<path d="M15.833 12.215H17.4163" stroke="#BBBBBB" stroke-linecap="round" stroke-linejoin="round"/>
<path d="M15.833 7.46503H17.4163" stroke="#BBBBBB" stroke-linecap="round" stroke-linejoin="round"/>
<path d="M7.125 1.92334V3.50667" stroke="#BBBBBB" stroke-linecap="round" stroke-linejoin="round"/>
<path d="M7.125 16.1733V17.7567" stroke="#BBBBBB" stroke-linecap="round" stroke-linejoin="round"/>
<rect x="13" y="11.34" width="5" height="7" fill="#FCFCFD"/>
<rect x="18" y="13.34" width="5" height="7" transform="rotate(90 18 13.34)" fill="#FCFCFD"/>
<path d="M16.5859 14.0974L13.7575 16.9258" stroke="#BBBBBB" stroke-linecap="round" stroke-linejoin="round"/>
<path d="M16.5862 16.9258L13.7578 14.0974" stroke="#BBBBBB" stroke-linecap="round" stroke-linejoin="round"/>
</svg>
