<svg width="19" height="20" viewBox="0 0 19 20" fill="none" xmlns="http://www.w3.org/2000/svg">
<path d="M14.2503 3.50665H4.75033C3.87587 3.50665 3.16699 4.21554 3.16699 5.08999V14.59C3.16699 15.4644 3.87587 16.1733 4.75033 16.1733H14.2503C15.1248 16.1733 15.8337 15.4644 15.8337 14.59V5.08999C15.8337 4.21554 15.1248 3.50665 14.2503 3.50665Z" stroke="#BBBBBB" stroke-linecap="round" stroke-linejoin="round"/>
<path d="M11.875 7.46497H7.125V12.215H11.875V7.46497Z" stroke="#BBBBBB" stroke-linecap="round" stroke-linejoin="round"/>
<path d="M11.875 1.92328V3.50661" stroke="#BBBBBB" stroke-linecap="round" stroke-linejoin="round"/>
<path d="M11.875 16.1733V17.7566" stroke="#BBBBBB" stroke-linecap="round" stroke-linejoin="round"/>
<path d="M1.58301 12.215H3.16634" stroke="#BBBBBB" stroke-linecap="round" stroke-linejoin="round"/>
<path d="M1.58301 7.46497H3.16634" stroke="#BBBBBB" stroke-linecap="round" stroke-linejoin="round"/>
<path d="M15.833 12.215H17.4163" stroke="#BBBBBB" stroke-linecap="round" stroke-linejoin="round"/>
<path d="M15.833 7.46497H17.4163" stroke="#BBBBBB" stroke-linecap="round" stroke-linejoin="round"/>
<path d="M7.125 1.92328V3.50661" stroke="#BBBBBB" stroke-linecap="round" stroke-linejoin="round"/>
<path d="M7.125 16.1733V17.7566" stroke="#BBBBBB" stroke-linecap="round" stroke-linejoin="round"/>
<rect x="13" y="11.34" width="5" height="7" fill="#FCFCFD"/>
<rect x="18" y="13.34" width="5" height="7" transform="rotate(90 18 13.34)" fill="#FCFCFD"/>
<path d="M15 13.34V17.34" stroke="#BBBBBB" stroke-linecap="round" stroke-linejoin="round"/>
<path d="M17 15.34H13" stroke="#BBBBBB" stroke-linecap="round" stroke-linejoin="round"/>
</svg>
