<svg width="19" height="19" viewBox="0 0 19 19" fill="none" xmlns="http://www.w3.org/2000/svg">
<path d="M14.2528 3.16699H4.7511C3.87649 3.16699 3.16748 3.876 3.16748 4.75061V14.2523C3.16748 15.1269 3.87649 15.8359 4.7511 15.8359H14.2528C15.1274 15.8359 15.8364 15.1269 15.8364 14.2523V4.75061C15.8364 3.876 15.1274 3.16699 14.2528 3.16699Z" stroke="#BBBBBB" stroke-width="1.00018" stroke-linecap="round" stroke-linejoin="round"/>
<path d="M11.8778 7.12646H7.12695V11.8773H11.8778V7.12646Z" stroke="#BBBBBB" stroke-width="1.00018" stroke-linecap="round" stroke-linejoin="round"/>
<path d="M11.8774 1.58398V3.1676" stroke="#BBBBBB" stroke-width="1.00018" stroke-linecap="round" stroke-linejoin="round"/>
<path d="M11.8774 15.8359V17.4196" stroke="#BBBBBB" stroke-width="1.00018" stroke-linecap="round" stroke-linejoin="round"/>
<path d="M1.58398 11.877H3.1676" stroke="#BBBBBB" stroke-width="1.00018" stroke-linecap="round" stroke-linejoin="round"/>
<path d="M1.58398 7.12646H3.1676" stroke="#BBBBBB" stroke-width="1.00018" stroke-linecap="round" stroke-linejoin="round"/>
<path d="M15.8369 11.877H17.4205" stroke="#BBBBBB" stroke-width="1.00018" stroke-linecap="round" stroke-linejoin="round"/>
<path d="M15.8369 7.12646H17.4205" stroke="#BBBBBB" stroke-width="1.00018" stroke-linecap="round" stroke-linejoin="round"/>
<path d="M7.12695 1.58398V3.1676" stroke="#BBBBBB" stroke-width="1.00018" stroke-linecap="round" stroke-linejoin="round"/>
<path d="M7.12695 15.8359V17.4196" stroke="#BBBBBB" stroke-width="1.00018" stroke-linecap="round" stroke-linejoin="round"/>
<rect x="13.0024" y="11.002" width="5.0009" height="7.00126" fill="black"/>
<rect x="18.0029" y="13.0024" width="5.0009" height="7.00126" transform="rotate(90 18.0029 13.0024)" fill="black"/>
<path d="M13.0024 15.6695L14.336 17.0031L17.0032 14.3359" stroke="#BBBBBB" stroke-width="1.00018" stroke-linecap="round" stroke-linejoin="round"/>
</svg>
