<svg width="19" height="20" viewBox="0 0 19 20" fill="none" xmlns="http://www.w3.org/2000/svg">
<g id="Frame">
<path id="Vector" d="M14.2503 3.32666H4.75033C3.87587 3.32666 3.16699 4.03554 3.16699 4.90999V14.41C3.16699 15.2844 3.87587 15.9933 4.75033 15.9933H14.2503C15.1248 15.9933 15.8337 15.2844 15.8337 14.41V4.90999C15.8337 4.03554 15.1248 3.32666 14.2503 3.32666Z" stroke="#BBBBBB" stroke-linecap="round" stroke-linejoin="round"/>
<path id="Vector_2" d="M11.875 7.28503H7.125V12.035H11.875V7.28503Z" stroke="#BBBBBB" stroke-linecap="round" stroke-linejoin="round"/>
<path id="Vector_3" d="M11.875 1.74341V3.32674" stroke="#BBBBBB" stroke-linecap="round" stroke-linejoin="round"/>
<path id="Vector_4" d="M11.875 15.9934V17.5767" stroke="#BBBBBB" stroke-linecap="round" stroke-linejoin="round"/>
<path id="Vector_5" d="M1.58301 12.035H3.16634" stroke="#BBBBBB" stroke-linecap="round" stroke-linejoin="round"/>
<path id="Vector_6" d="M1.58301 7.28503H3.16634" stroke="#BBBBBB" stroke-linecap="round" stroke-linejoin="round"/>
<path id="Vector_7" d="M15.833 12.035H17.4163" stroke="#BBBBBB" stroke-linecap="round" stroke-linejoin="round"/>
<path id="Vector_8" d="M15.833 7.28503H17.4163" stroke="#BBBBBB" stroke-linecap="round" stroke-linejoin="round"/>
<path id="Vector_9" d="M7.125 1.74341V3.32674" stroke="#BBBBBB" stroke-linecap="round" stroke-linejoin="round"/>
<path id="Vector_10" d="M7.125 15.9934V17.5767" stroke="#BBBBBB" stroke-linecap="round" stroke-linejoin="round"/>
</g>
</svg>
