<svg width="19" height="20" viewBox="0 0 19 20" fill="none" xmlns="http://www.w3.org/2000/svg">
<path d="M14.2503 3.50684H4.75033C3.87587 3.50684 3.16699 4.21573 3.16699 5.09018V14.5901C3.16699 15.4646 3.87587 16.1735 4.75033 16.1735H14.2503C15.1248 16.1735 15.8337 15.4646 15.8337 14.5901V5.09018C15.8337 4.21573 15.1248 3.50684 14.2503 3.50684Z" stroke="#BBBBBB" stroke-linecap="round" stroke-linejoin="round"/>
<path d="M11.875 7.46484H7.125V12.2148H11.875V7.46484Z" stroke="#BBBBBB" stroke-linecap="round" stroke-linejoin="round"/>
<path d="M11.875 1.92334V3.50667" stroke="#BBBBBB" stroke-linecap="round" stroke-linejoin="round"/>
<path d="M11.875 16.1733V17.7567" stroke="#BBBBBB" stroke-linecap="round" stroke-linejoin="round"/>
<path d="M1.58301 12.2148H3.16634" stroke="#BBBBBB" stroke-linecap="round" stroke-linejoin="round"/>
<path d="M1.58301 7.46484H3.16634" stroke="#BBBBBB" stroke-linecap="round" stroke-linejoin="round"/>
<path d="M15.833 12.2148H17.4163" stroke="#BBBBBB" stroke-linecap="round" stroke-linejoin="round"/>
<path d="M15.833 7.46484H17.4163" stroke="#BBBBBB" stroke-linecap="round" stroke-linejoin="round"/>
<path d="M7.125 1.92334V3.50667" stroke="#BBBBBB" stroke-linecap="round" stroke-linejoin="round"/>
<path d="M7.125 16.1733V17.7567" stroke="#BBBBBB" stroke-linecap="round" stroke-linejoin="round"/>
<path d="M18 11.3398H13V18.3398H18V11.3398Z" fill="black"/>
<path d="M18 18.3398V13.3398H11V18.3398H18Z" fill="black"/>
<path d="M16.5857 14.0972L13.7573 16.9256" stroke="#BBBBBB" stroke-linecap="round" stroke-linejoin="round"/>
<path d="M16.5862 16.9256L13.7578 14.0972" stroke="#BBBBBB" stroke-linecap="round" stroke-linejoin="round"/>
</svg>
