<svg width="19" height="19" viewBox="0 0 19 19" fill="none" xmlns="http://www.w3.org/2000/svg">
<path d="M6.25433 15.8337C7.76529 16.6088 9.5034 16.8187 11.1554 16.4257C12.8075 16.0326 14.2649 15.0625 15.2649 13.69C16.2649 12.3175 16.7419 10.633 16.6098 8.93999C16.4777 7.24697 15.7453 5.6568 14.5445 4.45602C13.3437 3.25523 11.7536 2.52281 10.0605 2.39073C8.36752 2.25866 6.68299 2.73561 5.31052 3.73564C3.93805 4.73567 2.96788 6.19303 2.57484 7.84508C2.1818 9.49713 2.39174 11.2352 3.16683 12.7462L1.5835 17.417L6.25433 15.8337Z" stroke="#BBBBBB" stroke-linecap="round" stroke-linejoin="round"/>
<path d="M7.19629 7.12594C7.38241 6.59684 7.74978 6.15069 8.23334 5.8665C8.71689 5.58232 9.28541 5.47843 9.83822 5.57325C10.391 5.66807 10.8924 5.95548 11.2536 6.38457C11.6148 6.81365 11.8125 7.35673 11.8117 7.91761C11.8117 9.50094 9.43671 10.2926 9.43671 10.2926" stroke="#BBBBBB" stroke-linecap="round" stroke-linejoin="round"/>
<path d="M9.5 13.459H9.50792" stroke="#BBBBBB" stroke-linecap="round" stroke-linejoin="round"/>
</svg>
