<svg width="16" height="17" viewBox="0 0 16 17" fill="none" xmlns="http://www.w3.org/2000/svg">
<g id="Frame">
<path id="Vector" d="M5.53311 6.96659C5.44717 6.97128 5.36161 6.95211 5.28589 6.9112C5.21016 6.8703 5.14722 6.80924 5.10403 6.7348C5.06084 6.66035 5.03908 6.57541 5.04115 6.48937C5.04322 6.40333 5.06905 6.31953 5.11578 6.24725L7.59978 2.29992C7.63881 2.22963 7.69534 2.17062 7.76389 2.12861C7.83244 2.08659 7.91068 2.063 7.99102 2.06011C8.07137 2.05723 8.1511 2.07515 8.22248 2.11215C8.29386 2.14914 8.35448 2.20394 8.39845 2.27125L10.8664 6.23325C10.9151 6.30311 10.9437 6.38495 10.9492 6.4699C10.9547 6.55486 10.9368 6.63969 10.8975 6.71522C10.8582 6.79075 10.7991 6.8541 10.7264 6.8984C10.6537 6.94271 10.5702 6.96629 10.4851 6.96659H5.53311Z" stroke="#BBBBBB" stroke-linecap="round" stroke-linejoin="round"/>
<path id="Vector_2" d="M6 9.6333H2.66667C2.29848 9.6333 2 9.93178 2 10.3V13.6333C2 14.0015 2.29848 14.3 2.66667 14.3H6C6.36819 14.3 6.66667 14.0015 6.66667 13.6333V10.3C6.66667 9.93178 6.36819 9.6333 6 9.6333Z" stroke="#BBBBBB" stroke-linecap="round" stroke-linejoin="round"/>
<path id="Vector_3" d="M11.6663 14.3C12.955 14.3 13.9997 13.2553 13.9997 11.9666C13.9997 10.678 12.955 9.6333 11.6663 9.6333C10.3777 9.6333 9.33301 10.678 9.33301 11.9666C9.33301 13.2553 10.3777 14.3 11.6663 14.3Z" stroke="#BBBBBB" stroke-linecap="round" stroke-linejoin="round"/>
</g>
</svg>
