<svg width="16" height="16" viewBox="0 0 16 16" fill="none" xmlns="http://www.w3.org/2000/svg">
<path d="M5.09778 6.48099C4.99667 6.48651 4.89602 6.46396 4.80693 6.41583C4.71784 6.36771 4.64379 6.29588 4.59298 6.2083C4.54217 6.12071 4.51657 6.02078 4.519 5.91956C4.52144 5.81834 4.55183 5.71975 4.6068 5.63471L7.52916 0.990795C7.57507 0.908101 7.64158 0.838677 7.72223 0.789254C7.80287 0.739818 7.89492 0.712066 7.98944 0.708666C8.08397 0.705277 8.17777 0.726359 8.26174 0.769889C8.34572 0.813407 8.41704 0.877877 8.46877 0.957065L11.3722 5.61824C11.4295 5.70043 11.4632 5.79671 11.4696 5.89665C11.4761 5.99661 11.4551 6.09641 11.4088 6.18526C11.3626 6.27412 11.2931 6.34865 11.2075 6.40077C11.122 6.4529 11.0238 6.48064 10.9236 6.48099H5.09778Z" stroke="#BBBBBB" stroke-width="1.17647" stroke-linecap="round" stroke-linejoin="round"/>
<path d="M5.64706 9.61829H1.7255C1.29233 9.61829 0.941177 9.96944 0.941177 10.4026V14.3242C0.941177 14.7573 1.29233 15.1085 1.7255 15.1085H5.64706C6.08022 15.1085 6.43138 14.7573 6.43138 14.3242V10.4026C6.43138 9.96944 6.08022 9.61829 5.64706 9.61829Z" stroke="#BBBBBB" stroke-width="1.17647" stroke-linecap="round" stroke-linejoin="round"/>
<path d="M12.3133 15.1085C13.8294 15.1085 15.0585 13.8795 15.0585 12.3633C15.0585 10.8473 13.8294 9.61829 12.3133 9.61829C10.7973 9.61829 9.56824 10.8473 9.56824 12.3633C9.56824 13.8795 10.7973 15.1085 12.3133 15.1085Z" stroke="#BBBBBB" stroke-width="1.17647" stroke-linecap="round" stroke-linejoin="round"/>
</svg>
