<svg width="30" height="30" viewBox="0 0 30 30" fill="none" xmlns="http://www.w3.org/2000/svg">
<path d="M22.25 25.875C22.25 23.9522 21.4862 22.1081 20.1265 20.7485C18.7669 19.3888 16.9228 18.625 15 18.625C13.0772 18.625 11.2331 19.3888 9.87348 20.7485C8.51384 22.1081 7.75 23.9522 7.75 25.875" stroke="#BBBBBB" stroke-width="1.25" stroke-linecap="round" stroke-linejoin="round"/>
<path d="M15.0003 18.6237C17.6697 18.6237 19.8337 16.4597 19.8337 13.7904C19.8337 11.121 17.6697 8.95703 15.0003 8.95703C12.3309 8.95703 10.167 11.121 10.167 13.7904C10.167 16.4597 12.3309 18.6237 15.0003 18.6237Z" stroke="#BBBBBB" stroke-width="1.25" stroke-linecap="round" stroke-linejoin="round"/>
<path d="M23.4583 4.125H6.54167C5.20698 4.125 4.125 5.20698 4.125 6.54167V23.4583C4.125 24.793 5.20698 25.875 6.54167 25.875H23.4583C24.793 25.875 25.875 24.793 25.875 23.4583V6.54167C25.875 5.20698 24.793 4.125 23.4583 4.125Z" stroke="#BBBBBB" stroke-width="1.25" stroke-linecap="round" stroke-linejoin="round"/>
</svg>
