<svg width="18" height="19" viewBox="0 0 18 19" fill="none" xmlns="http://www.w3.org/2000/svg">
<g id="Frame">
<path id="Vector" d="M13.5 16.09C13.5 14.4987 12.8679 12.9725 11.7426 11.8473C10.6174 10.7221 9.0913 10.09 7.5 10.09C5.9087 10.09 4.38258 10.7221 3.25736 11.8473C2.13214 12.9725 1.5 14.4987 1.5 16.09" stroke="#BBBBBB" stroke-linecap="round" stroke-linejoin="round"/>
<path id="Vector_2" d="M7.5 10.09C9.57107 10.09 11.25 8.41103 11.25 6.33997C11.25 4.2689 9.57107 2.58997 7.5 2.58997C5.42893 2.58997 3.75 4.2689 3.75 6.33997C3.75 8.41103 5.42893 10.09 7.5 10.09Z" stroke="#BBBBBB" stroke-linecap="round" stroke-linejoin="round"/>
<path id="Vector_3" d="M16.4996 15.34C16.4996 12.8125 14.9996 10.465 13.4996 9.33999C13.9927 8.97007 14.3869 8.4843 14.6475 7.92569C14.9081 7.36708 15.027 6.75284 14.9936 6.13734C14.9603 5.52184 14.7757 4.92405 14.4562 4.39689C14.1368 3.86973 13.6923 3.42944 13.1621 3.11499" stroke="#BBBBBB" stroke-linecap="round" stroke-linejoin="round"/>
</g>
</svg>
