<svg width="16" height="17" viewBox="0 0 16 17" fill="none" xmlns="http://www.w3.org/2000/svg">
<path d="M1.33301 14.34C1.33295 13.3135 1.6291 12.3089 2.1859 11.4466C2.74271 10.5843 3.53652 9.90096 4.47207 9.47865C5.40762 9.05635 6.44517 8.91298 7.46018 9.06576C8.4752 9.21854 9.42456 9.66098 10.1943 10.34" stroke="#BBBBBB" stroke-linecap="round" stroke-linejoin="round"/>
<path d="M6.66634 9.00663C8.50729 9.00663 9.99967 7.51425 9.99967 5.6733C9.99967 3.83235 8.50729 2.33997 6.66634 2.33997C4.82539 2.33997 3.33301 3.83235 3.33301 5.6733C3.33301 7.51425 4.82539 9.00663 6.66634 9.00663Z" stroke="#BBBBBB" stroke-linecap="round" stroke-linejoin="round"/>
<path d="M12.667 11.0067V15.0067" stroke="#BBBBBB" stroke-linecap="round" stroke-linejoin="round"/>
<path d="M14.667 13.0067H10.667" stroke="#BBBBBB" stroke-linecap="round" stroke-linejoin="round"/>
<path d="M12.667 11.0067V15.0067" stroke="#BBBBBB" stroke-linecap="round" stroke-linejoin="round"/>
<path d="M14.667 13.0067H10.667" stroke="#BBBBBB" stroke-linecap="round" stroke-linejoin="round"/>
</svg>
