<svg width="31" height="30" viewBox="0 0 31 30" fill="none" xmlns="http://www.w3.org/2000/svg">
<path d="M14.0869 15H16.5869C17.25 15 17.8858 14.7366 18.3547 14.2678C18.8235 13.7989 19.0869 13.163 19.0869 12.5C19.0869 11.837 18.8235 11.2011 18.3547 10.7322C17.8858 10.2634 17.25 10 16.5869 10H12.8369C12.0869 10 11.4619 10.25 11.0869 10.75L4.08691 17.5" stroke="#3772FF" stroke-width="2.5" stroke-linecap="round" stroke-linejoin="round"/>
<path d="M9.08691 22.5008L11.0869 20.7508C11.4619 20.2508 12.0869 20.0008 12.8369 20.0008H17.8369C19.2119 20.0008 20.4619 19.5008 21.3369 18.5008L27.0869 13.0008C27.5693 12.545 27.8508 11.9162 27.8696 11.2528C27.8883 10.5894 27.6428 9.94569 27.1869 9.46333C26.7311 8.98097 26.1023 8.69944 25.4389 8.68069C24.7755 8.66193 24.1318 8.90749 23.6494 9.36333L18.3994 14.2383" stroke="#3772FF" stroke-width="2.5" stroke-linecap="round" stroke-linejoin="round"/>
<path d="M2.83691 16.25L10.3369 23.75" stroke="#3772FF" stroke-width="2.5" stroke-linecap="round" stroke-linejoin="round"/>
</svg>
