<svg width="29" height="29" viewBox="0 0 29 29" fill="none" xmlns="http://www.w3.org/2000/svg">
<path d="M13.208 23.708C11.1594 23.7142 9.18332 22.9503 7.67163 21.5677C6.15994 20.1851 5.22308 18.2848 5.04688 16.2438C4.87068 14.2028 5.468 12.1701 6.72037 10.5489C7.97273 8.92765 9.78867 7.83632 11.808 7.49134C18.458 6.20801 20.208 5.60134 22.5414 2.70801C23.708 5.04134 24.8747 7.58467 24.8747 12.0413C24.8747 18.458 19.298 23.708 13.208 23.708Z" stroke="black" stroke-linecap="round" stroke-linejoin="round"/>
<path d="M2.7085 24.876C2.7085 21.376 4.86683 18.6226 8.63516 17.876C11.4585 17.316 14.3752 15.5426 15.5418 14.376" stroke="black" stroke-linecap="round" stroke-linejoin="round"/>
</svg>
