<svg width="28" height="28" viewBox="0 0 28 28" fill="none" xmlns="http://www.w3.org/2000/svg">
<path d="M2.33398 10.5026C3.26224 10.5026 4.15248 10.8714 4.80886 11.5277C5.46524 12.1841 5.83398 13.0743 5.83398 14.0026C5.83398 14.9309 5.46524 15.8211 4.80886 16.4775C4.15248 17.1339 3.26224 17.5026 2.33398 17.5026V19.8359C2.33398 20.4548 2.57982 21.0483 3.0174 21.4859C3.45499 21.9234 4.04848 22.1693 4.66732 22.1693H23.334C23.9528 22.1693 24.5463 21.9234 24.9839 21.4859C25.4215 21.0483 25.6673 20.4548 25.6673 19.8359V17.5026C24.7391 17.5026 23.8488 17.1339 23.1924 16.4775C22.5361 15.8211 22.1673 14.9309 22.1673 14.0026C22.1673 13.0743 22.5361 12.1841 23.1924 11.5277C23.8488 10.8714 24.7391 10.5026 25.6673 10.5026V8.16927C25.6673 7.55043 25.4215 6.95694 24.9839 6.51935C24.5463 6.08177 23.9528 5.83594 23.334 5.83594H4.66732C4.04848 5.83594 3.45499 6.08177 3.0174 6.51935C2.57982 6.95694 2.33398 7.55043 2.33398 8.16927V10.5026Z" stroke="black" stroke-linecap="round" stroke-linejoin="round"/>
<path d="M15.168 5.83594V8.16927" stroke="black" stroke-linecap="round" stroke-linejoin="round"/>
<path d="M15.168 19.8359V22.1693" stroke="black" stroke-linecap="round" stroke-linejoin="round"/>
<path d="M15.168 12.8359V15.1693" stroke="black" stroke-linecap="round" stroke-linejoin="round"/>
</svg>
