<svg width="28" height="28" viewBox="0 0 28 28" fill="none" xmlns="http://www.w3.org/2000/svg">
<path d="M14.0007 25.6654C20.444 25.6654 25.6673 20.442 25.6673 13.9987C25.6673 7.55538 20.444 2.33203 14.0007 2.33203C7.55733 2.33203 2.33398 7.55538 2.33398 13.9987C2.33398 20.442 7.55733 25.6654 14.0007 25.6654Z" stroke="black" stroke-linecap="round" stroke-linejoin="round"/>
<path d="M14 21C17.866 21 21 17.866 21 14C21 10.134 17.866 7 14 7C10.134 7 7 10.134 7 14C7 17.866 10.134 21 14 21Z" stroke="black" stroke-linecap="round" stroke-linejoin="round"/>
<path d="M14.0013 16.3307C15.29 16.3307 16.3346 15.2861 16.3346 13.9974C16.3346 12.7087 15.29 11.6641 14.0013 11.6641C12.7126 11.6641 11.668 12.7087 11.668 13.9974C11.668 15.2861 12.7126 16.3307 14.0013 16.3307Z" stroke="black" stroke-linecap="round" stroke-linejoin="round"/>
</svg>
