<svg width="28" height="28" viewBox="0 0 28 28" fill="none" xmlns="http://www.w3.org/2000/svg">
<path d="M23.3333 9.33301H4.66667C4.02233 9.33301 3.5 9.85534 3.5 10.4997V12.833C3.5 13.4773 4.02233 13.9997 4.66667 13.9997H23.3333C23.9777 13.9997 24.5 13.4773 24.5 12.833V10.4997C24.5 9.85534 23.9777 9.33301 23.3333 9.33301Z" stroke="black" stroke-linecap="round" stroke-linejoin="round"/>
<path d="M14 9.33301V24.4997" stroke="black" stroke-linecap="round" stroke-linejoin="round"/>
<path d="M22.1673 14V22.1667C22.1673 22.7855 21.9215 23.379 21.4839 23.8166C21.0463 24.2542 20.4528 24.5 19.834 24.5H8.16732C7.54848 24.5 6.95499 24.2542 6.5174 23.8166C6.07982 23.379 5.83398 22.7855 5.83398 22.1667V14" stroke="black" stroke-linecap="round" stroke-linejoin="round"/>
<path d="M8.75065 9.33384C7.9771 9.33384 7.23524 9.02655 6.68826 8.47957C6.14128 7.93259 5.83398 7.19073 5.83398 6.41718C5.83398 5.64363 6.14128 4.90176 6.68826 4.35478C7.23524 3.8078 7.9771 3.50051 8.75065 3.50051C9.87612 3.4809 10.979 4.02698 11.9155 5.06753C12.852 6.10808 13.5786 7.59481 14.0007 9.33384C14.4227 7.59481 15.1493 6.10808 16.0858 5.06753C17.0223 4.02698 18.1252 3.4809 19.2507 3.50051C20.0242 3.50051 20.7661 3.8078 21.313 4.35478C21.86 4.90176 22.1673 5.64363 22.1673 6.41718C22.1673 7.19073 21.86 7.93259 21.313 8.47957C20.7661 9.02655 20.0242 9.33384 19.2507 9.33384" stroke="black" stroke-linecap="round" stroke-linejoin="round"/>
</svg>
