<svg width="27" height="27" viewBox="0 0 27 27" fill="none" xmlns="http://www.w3.org/2000/svg">
<path d="M13.0504 2.86628C13.466 2.45055 14.0297 2.21692 14.6176 2.2168H22.5665C23.1544 2.2168 23.7183 2.45034 24.134 2.86604C24.5497 3.28175 24.7832 3.84557 24.7832 4.43346V12.3824C24.7831 12.9703 24.5495 13.534 24.1337 13.9496L14.4868 23.5965C13.983 24.0971 13.3017 24.3781 12.5915 24.3781C11.8814 24.3781 11.2 24.0971 10.6963 23.5965L3.40345 16.3037C2.90288 15.8 2.62193 15.1186 2.62193 14.4085C2.62193 13.6983 2.90288 13.017 3.40345 12.5132L13.0504 2.86628Z" stroke="black" stroke-width="1.5" stroke-linecap="round" stroke-linejoin="round"/>
<path d="M18.6875 8.86712C18.3815 8.86712 18.1334 8.61901 18.1334 8.31296C18.1334 8.0069 18.3815 7.75879 18.6875 7.75879C18.9936 7.75879 19.2417 8.0069 19.2417 8.31296C19.2417 8.61901 18.9936 8.86712 18.6875 8.86712Z" fill="black" stroke="black" stroke-width="1.5" stroke-linecap="round" stroke-linejoin="round"/>
</svg>
