<svg width="26" height="27" viewBox="0 0 26 27" fill="none" xmlns="http://www.w3.org/2000/svg">
<path d="M23.8058 18.8235V22.0697C23.807 22.3711 23.7452 22.6694 23.6245 22.9455C23.5038 23.2217 23.3267 23.4695 23.1046 23.6732C22.8826 23.877 22.6204 24.0321 22.3349 24.1286C22.0495 24.2252 21.747 24.261 21.4468 24.2339C18.1171 23.8721 14.9186 22.7343 12.1084 20.9119C9.49393 19.2506 7.2773 17.0339 5.61593 14.4194C3.78719 11.5965 2.64913 8.38247 2.29394 5.03776C2.2669 4.73853 2.30246 4.43694 2.39836 4.15221C2.49426 3.86747 2.6484 3.60582 2.85096 3.38392C3.05352 3.16202 3.30007 2.98473 3.5749 2.86333C3.84973 2.74194 4.14683 2.6791 4.44729 2.67882H7.69353C8.21868 2.67365 8.72778 2.85961 9.12595 3.20204C9.52413 3.54447 9.7842 4.02 9.8577 4.54C9.99472 5.57887 10.2488 6.59891 10.6152 7.58065C10.7607 7.96796 10.7923 8.38888 10.706 8.79354C10.6197 9.1982 10.4192 9.56964 10.1282 9.86385L8.75398 11.2381C10.2944 13.9471 12.5374 16.1902 15.2465 17.7306L16.6207 16.3563C16.9149 16.0654 17.2864 15.8649 17.691 15.7786C18.0957 15.6923 18.5166 15.7238 18.9039 15.8694C19.8857 16.2358 20.9057 16.4899 21.9446 16.6269C22.4702 16.701 22.9503 16.9658 23.2934 17.3708C23.6366 17.7758 23.8189 18.2928 23.8058 18.8235Z" stroke="black" stroke-width="2" stroke-linecap="round" stroke-linejoin="round"/>
</svg>
