<svg width="43" height="42" viewBox="0 0 43 42" fill="none" xmlns="http://www.w3.org/2000/svg">
<path d="M35.2499 14H7.25C6.28349 14 5.5 14.7835 5.5 15.75V19.25C5.5 20.2164 6.28349 21 7.25 21H35.2499C36.2165 21 37 20.2164 37 19.25V15.75C37 14.7835 36.2165 14 35.2499 14Z" stroke="black" stroke-width="1.5" stroke-linecap="round" stroke-linejoin="round"/>
<path d="M21.25 14V36.75" stroke="black" stroke-width="1.5" stroke-linecap="round" stroke-linejoin="round"/>
<path d="M33.501 21V33.2501C33.501 34.1783 33.1323 35.0685 32.4759 35.7249C31.8195 36.3813 30.9292 36.75 30.001 36.75H12.501C11.5727 36.75 10.6825 36.3813 10.0261 35.7249C9.36974 35.0685 9.00098 34.1783 9.00098 33.2501V21" stroke="black" stroke-width="1.5" stroke-linecap="round" stroke-linejoin="round"/>
<path d="M13.376 14.0008C12.2157 14.0008 11.1029 13.5398 10.2824 12.7194C9.46193 11.8989 9.00098 10.7861 9.00098 9.62577C9.00098 8.46545 9.46193 7.35264 10.2824 6.53217C11.1029 5.7117 12.2157 5.25077 13.376 5.25077C15.0642 5.22135 16.7185 6.04047 18.1233 7.6013C19.528 9.16212 20.6179 11.3922 21.2511 14.0008C21.8841 11.3922 22.974 9.16212 24.3787 7.6013C25.7835 6.04047 27.4378 5.22135 29.1261 5.25077C30.2863 5.25077 31.3992 5.7117 32.2195 6.53217C33.04 7.35264 33.501 8.46545 33.501 9.62577C33.501 10.7861 33.04 11.8989 32.2195 12.7194C31.3992 13.5398 30.2863 14.0008 29.1261 14.0008" stroke="black" stroke-width="1.5" stroke-linecap="round" stroke-linejoin="round"/>
</svg>
