<svg width="43" height="42" viewBox="0 0 43 42" fill="none" xmlns="http://www.w3.org/2000/svg">
<g clip-path="url(#clip0_775_2236)">
<path d="M20.001 29.7519L23.5009 33.252C23.8456 33.5967 24.255 33.8701 24.7053 34.0567C25.1557 34.2432 25.6384 34.3392 26.1259 34.3392C26.6134 34.3392 27.0961 34.2432 27.5466 34.0567C27.997 33.8701 28.4062 33.5967 28.7509 33.252C29.0956 32.9073 29.3691 32.4979 29.5557 32.0476C29.7423 31.5972 29.8383 31.1145 29.8383 30.627C29.8383 30.1395 29.7423 29.6566 29.5557 29.2063C29.3691 28.7559 29.0956 28.3467 28.7509 28.002" stroke="black" stroke-width="1.5" stroke-linecap="round" stroke-linejoin="round"/>
<path d="M25.2534 24.4998L29.6283 28.8749C30.3245 29.571 31.2687 29.9622 32.2533 29.9622C33.2379 29.9622 34.1822 29.571 34.8783 28.8749C35.5745 28.1787 35.9657 27.2345 35.9657 26.2499C35.9657 25.2653 35.5745 24.321 34.8783 23.6249L28.0884 16.8348C27.104 15.8517 25.7696 15.2996 24.3783 15.2996C22.9871 15.2996 21.6527 15.8517 20.6684 16.8348L19.1283 18.3749C18.4322 19.071 17.4879 19.4622 16.5033 19.4622C15.5188 19.4622 14.5745 19.071 13.8783 18.3749C13.1821 17.6787 12.791 16.7345 12.791 15.7499C12.791 14.7653 13.1821 13.8211 13.8783 13.1249L18.7959 8.20741C20.3922 6.61516 22.4742 5.60087 24.7119 5.32511C26.9498 5.04934 29.2157 5.52785 31.1508 6.68491L31.9734 7.1749C32.7185 7.62463 33.6044 7.78061 34.4583 7.6124L37.5033 6.99991" stroke="black" stroke-width="1.5" stroke-linecap="round" stroke-linejoin="round"/>
<path d="M37.501 5.25L39.2509 24.5H35.751" stroke="black" stroke-width="1.5" stroke-linecap="round" stroke-linejoin="round"/>
<path d="M6.00098 5.25L4.25098 24.4999L15.626 35.8751C16.3221 36.5712 17.2664 36.9623 18.251 36.9623C19.2356 36.9623 20.1798 36.5712 20.876 35.8751C21.5721 35.1788 21.9633 34.2345 21.9633 33.2501C21.9633 32.2655 21.5721 31.3212 20.876 30.6251" stroke="black" stroke-width="1.5" stroke-linecap="round" stroke-linejoin="round"/>
<path d="M6 7.00195H19.9999" stroke="black" stroke-width="1.5" stroke-linecap="round" stroke-linejoin="round"/>
</g>
<defs>
<clipPath id="clip0_775_2236">
<rect width="42" height="42" fill="white" transform="translate(0.75)"/>
</clipPath>
</defs>
</svg>
