<svg width="42" height="42" viewBox="0 0 42 42" fill="none" xmlns="http://www.w3.org/2000/svg">
<g clip-path="url(#clip0_775_2254)">
<path d="M19.129 34.3357C16.1621 34.3446 13.3002 33.2383 11.1108 31.2359C8.9215 29.2335 7.56466 26.4814 7.30948 23.5254C7.05429 20.5695 7.91938 17.6256 9.73315 15.2776C11.5469 12.9296 14.1769 11.3491 17.1014 10.8495C26.7325 8.99084 29.267 8.11221 32.6464 3.92188C34.3359 7.30118 36.0256 10.9846 36.0256 17.4391C36.0256 26.7322 27.949 34.3357 19.129 34.3357Z" stroke="black" stroke-width="1.44828" stroke-linecap="round" stroke-linejoin="round"/>
<path d="M3.92285 36.0272C3.92285 30.9582 7.04871 26.9706 12.5063 25.8893C16.5953 25.0782 20.8195 22.5099 22.509 20.8203" stroke="black" stroke-width="1.44828" stroke-linecap="round" stroke-linejoin="round"/>
</g>
<defs>
<clipPath id="clip0_775_2254">
<rect width="42" height="42" fill="white"/>
</clipPath>
</defs>
</svg>
