<svg width="43" height="42" viewBox="0 0 43 42" fill="none" xmlns="http://www.w3.org/2000/svg">
<path d="M21.5011 38.4981C31.166 38.4981 39.001 30.663 39.001 20.9981C39.001 11.3331 31.166 3.49805 21.5011 3.49805C11.836 3.49805 4.00098 11.3331 4.00098 20.9981C4.00098 30.663 11.836 38.4981 21.5011 38.4981Z" stroke="black" stroke-width="1.5" stroke-linecap="round" stroke-linejoin="round"/>
<path d="M21.5 31.5C27.299 31.5 32 26.799 32 21C32 15.201 27.299 10.5 21.5 10.5C15.701 10.5 11 15.201 11 21C11 26.799 15.701 31.5 21.5 31.5Z" stroke="black" stroke-width="1.5" stroke-linecap="round" stroke-linejoin="round"/>
<path d="M21.5019 24.496C23.435 24.496 25.0019 22.9291 25.0019 20.996C25.0019 19.063 23.435 17.4961 21.5019 17.4961C19.5689 17.4961 18.002 19.063 18.002 20.996C18.002 22.9291 19.5689 24.496 21.5019 24.496Z" stroke="black" stroke-width="1.5" stroke-linecap="round" stroke-linejoin="round"/>
</svg>
