<svg width="43" height="42" viewBox="0 0 43 42" fill="none" xmlns="http://www.w3.org/2000/svg">
<g clip-path="url(#clip0_775_2260)">
<path d="M3.75098 15.7539C5.14337 15.7539 6.47873 16.3071 7.4633 17.2915C8.44787 18.2761 9.00098 19.6114 9.00098 21.0039C9.00098 22.3963 8.44787 23.7316 7.4633 24.7162C6.47873 25.7008 5.14337 26.2539 3.75098 26.2539V29.7538C3.75098 30.6822 4.11974 31.5724 4.77611 32.2288C5.43249 32.8851 6.32273 33.2539 7.25099 33.2539H35.251C36.1792 33.2539 37.0695 32.8851 37.7259 32.2288C38.3823 31.5724 38.751 30.6822 38.751 29.7538V26.2539C37.3587 26.2539 36.0232 25.7008 35.0386 24.7162C34.0542 23.7316 33.501 22.3963 33.501 21.0039C33.501 19.6114 34.0542 18.2761 35.0386 17.2915C36.0232 16.3071 37.3587 15.7539 38.751 15.7539V12.2539C38.751 11.3256 38.3823 10.4354 37.7259 9.77902C37.0695 9.12265 36.1792 8.75391 35.251 8.75391H7.25099C6.32273 8.75391 5.43249 9.12265 4.77611 9.77902C4.11974 10.4354 3.75098 11.3256 3.75098 12.2539V15.7539Z" stroke="black" stroke-width="1.5" stroke-linecap="round" stroke-linejoin="round"/>
<path d="M23.002 8.75391V12.2539" stroke="black" stroke-width="1.5" stroke-linecap="round" stroke-linejoin="round"/>
<path d="M23.002 29.7539V33.254" stroke="black" stroke-width="1.5" stroke-linecap="round" stroke-linejoin="round"/>
<path d="M23.002 19.2539V22.754" stroke="black" stroke-width="1.5" stroke-linecap="round" stroke-linejoin="round"/>
</g>
<defs>
<clipPath id="clip0_775_2260">
<rect width="42" height="42" fill="white" transform="translate(0.25)"/>
</clipPath>
</defs>
</svg>
