<svg width="29" height="29" viewBox="0 0 29 29" fill="none" xmlns="http://www.w3.org/2000/svg">
<path d="M10.0417 1.89062H3.23611C2.48439 1.89062 1.875 2.50002 1.875 3.25174V12.7795C1.875 13.5312 2.48439 14.1406 3.23611 14.1406H10.0417C10.7934 14.1406 11.4028 13.5312 11.4028 12.7795V3.25174C11.4028 2.50002 10.7934 1.89062 10.0417 1.89062Z" stroke="black" stroke-width="1.3125" stroke-linecap="round" stroke-linejoin="round"/>
<path d="M25.0143 1.89062H18.2088C17.457 1.89062 16.8477 2.50002 16.8477 3.25174V7.33507C16.8477 8.08679 17.457 8.69618 18.2088 8.69618H25.0143C25.766 8.69618 26.3754 8.08679 26.3754 7.33507V3.25174C26.3754 2.50002 25.766 1.89062 25.0143 1.89062Z" stroke="black" stroke-width="1.3125" stroke-linecap="round" stroke-linejoin="round"/>
<path d="M25.0143 14.1406H18.2088C17.457 14.1406 16.8477 14.75 16.8477 15.5017V25.0295C16.8477 25.7812 17.457 26.3906 18.2088 26.3906H25.0143C25.766 26.3906 26.3754 25.7812 26.3754 25.0295V15.5017C26.3754 14.75 25.766 14.1406 25.0143 14.1406Z" stroke="black" stroke-width="1.3125" stroke-linecap="round" stroke-linejoin="round"/>
<path d="M10.0417 19.5859H3.23611C2.48439 19.5859 1.875 20.1953 1.875 20.947V25.0304C1.875 25.7821 2.48439 26.3915 3.23611 26.3915H10.0417C10.7934 26.3915 11.4028 25.7821 11.4028 25.0304V20.947C11.4028 20.1953 10.7934 19.5859 10.0417 19.5859Z" stroke="black" stroke-width="1.3125" stroke-linecap="round" stroke-linejoin="round"/>
</svg>
