<svg width="15" height="16" viewBox="0 0 15 16" fill="none" xmlns="http://www.w3.org/2000/svg">
    <g clip-path="url(#clip0_851_4547)">
        <path fill-rule="evenodd" clip-rule="evenodd"
            d="M0.417786 1.78888C0.605314 1.60141 0.859622 1.49609 1.12479 1.49609C1.38995 1.49609 1.64426 1.60141 1.83179 1.78888L7.12479 7.08188L12.4178 1.78888C12.6064 1.60672 12.859 1.50593 13.1212 1.50821C13.3834 1.51048 13.6342 1.61565 13.8196 1.80106C14.005 1.98647 14.1102 2.23728 14.1125 2.49948C14.1147 2.76168 14.0139 3.01428 13.8318 3.20288L8.53879 8.49588L13.8318 13.7889C14.0139 13.9775 14.1147 14.2301 14.1125 14.4923C14.1102 14.7545 14.005 15.0053 13.8196 15.1907C13.6342 15.3761 13.3834 15.4813 13.1212 15.4836C12.859 15.4858 12.6064 15.385 12.4178 15.2029L7.12479 9.90988L1.83179 15.2029C1.64426 15.3904 1.38995 15.4957 1.12479 15.4957C0.859622 15.4957 0.605314 15.3904 0.417786 15.2029C0.230315 15.0154 0.125 14.761 0.125 14.4959C0.125 14.2307 0.230315 13.9764 0.417786 13.7889L5.71079 8.49588L0.417786 3.20288C0.230315 3.01535 0.125 2.76104 0.125 2.49588C0.125 2.23072 0.230315 1.97641 0.417786 1.78888Z"
            fill="#23262F" />
    </g>
    <defs>
        <clipPath id="clip0_851_4547">
            <rect width="14" height="15" fill="white" transform="translate(0.125 0.5)" />
        </clipPath>
    </defs>
</svg>