<svg width="29" height="28" viewBox="0 0 29 28" fill="none" xmlns="http://www.w3.org/2000/svg">
<path d="M11.6667 14.3333C15.3486 14.3333 18.3333 11.3486 18.3333 7.66667C18.3333 3.98477 15.3486 1 11.6667 1C7.98477 1 5 3.98477 5 7.66667C5 11.3486 7.98477 14.3333 11.6667 14.3333Z" stroke="black" stroke-width="1.5" stroke-linecap="round" stroke-linejoin="round"/>
<path d="M1 24.9997C1.00015 23.321 1.39652 21.666 2.15688 20.1693C2.91723 18.6727 4.02009 17.3766 5.37576 16.3866C6.73144 15.3965 8.30166 14.7404 9.95871 14.4716C11.6158 14.2028 13.3129 14.3289 14.912 14.8397" stroke="black" stroke-width="1.5" stroke-linecap="round" stroke-linejoin="round"/>
<path d="M22.333 25C24.5421 25 26.333 23.2091 26.333 21C26.333 18.7909 24.5421 17 22.333 17C20.1239 17 18.333 18.7909 18.333 21C18.333 23.2091 20.1239 25 22.333 25Z" stroke="black" stroke-width="1.5" stroke-linecap="round" stroke-linejoin="round"/>
<path d="M27.6652 26.3341L25.1318 23.8008" stroke="black" stroke-width="1.5" stroke-linecap="round" stroke-linejoin="round"/>
</svg>
