<svg width="28" height="28" viewBox="0 0 28 28" fill="none" xmlns="http://www.w3.org/2000/svg">
<path d="M12.834 19.8346L15.1673 22.168C15.3971 22.3978 15.67 22.5801 15.9702 22.7045C16.2705 22.8288 16.5923 22.8928 16.9173 22.8928C17.2423 22.8928 17.5641 22.8288 17.8644 22.7045C18.1647 22.5801 18.4375 22.3978 18.6673 22.168C18.8971 21.9382 19.0794 21.6653 19.2038 21.3651C19.3282 21.0648 19.3922 20.743 19.3922 20.418C19.3922 20.093 19.3282 19.7711 19.2038 19.4709C19.0794 19.1706 18.8971 18.8978 18.6673 18.668" stroke="black" stroke-linecap="round" stroke-linejoin="round"/>
<path d="M16.3356 16.3329L19.2522 19.2496C19.7163 19.7137 20.3458 19.9745 21.0022 19.9745C21.6586 19.9745 22.2881 19.7137 22.7522 19.2496C23.2163 18.7855 23.4771 18.156 23.4771 17.4996C23.4771 16.8432 23.2163 16.2137 22.7522 15.7496L18.2256 11.2229C17.5693 10.5675 16.6797 10.1994 15.7522 10.1994C14.8247 10.1994 13.9351 10.5675 13.2789 11.2229L12.2522 12.2496C11.7881 12.7137 11.1586 12.9745 10.5022 12.9745C9.84584 12.9745 9.21635 12.7137 8.75222 12.2496C8.28809 11.7855 8.02734 11.156 8.02734 10.4996C8.02734 9.84323 8.28809 9.21374 8.75222 8.74961L12.0306 5.47128C13.0948 4.40978 14.4828 3.73359 15.9746 3.54975C17.4665 3.3659 18.9771 3.68491 20.2672 4.45628L20.8156 4.78294C21.3123 5.08276 21.9029 5.18675 22.4722 5.07461L24.5022 4.66628" stroke="black" stroke-linecap="round" stroke-linejoin="round"/>
<path d="M24.5007 3.5L25.6673 16.3333H23.334" stroke="black" stroke-linecap="round" stroke-linejoin="round"/>
<path d="M3.50065 3.5L2.33398 16.3333L9.91732 23.9167C10.3814 24.3808 11.0109 24.6415 11.6673 24.6415C12.3237 24.6415 12.9532 24.3808 13.4173 23.9167C13.8814 23.4525 14.1422 22.823 14.1422 22.1667C14.1422 21.5103 13.8814 20.8808 13.4173 20.4167" stroke="black" stroke-linecap="round" stroke-linejoin="round"/>
<path d="M3.5 4.66797H12.8333" stroke="black" stroke-linecap="round" stroke-linejoin="round"/>
</svg>
