<svg width="30" height="51" viewBox="0 0 30 51" fill="none" xmlns="http://www.w3.org/2000/svg">
<path d="M20.1728 35.6355C22.3446 30.1541 24.3097 23.3282 24.3097 17.5365C24.3097 5.12576 15.105 1.60938 15.105 1.60938C15.105 1.60938 5.90039 5.12576 5.90039 17.5365C5.90039 23.3282 7.86543 30.0507 10.0373 35.6355H20.1728Z" stroke="white" stroke-width="2" stroke-miterlimit="10" stroke-linecap="round" stroke-linejoin="round"/>
<path d="M21.9313 7.91827C19.2423 3.26424 15.2088 1.71289 15.2088 1.71289C15.2088 1.71289 11.1753 3.26424 8.48633 7.91827H21.9313Z" stroke="white" stroke-width="2" stroke-miterlimit="10" stroke-linecap="round" stroke-linejoin="round"/>
<path d="M28.6538 33.6697C28.6538 36.2553 27.8264 38.7374 26.3785 40.599C26.0682 37.0827 24.2066 34.0834 21.5176 32.2218C22.345 29.6362 23.1723 26.8438 23.6895 24.1548C26.6887 26.3267 28.6538 29.7396 28.6538 33.6697Z" stroke="white" stroke-width="2" stroke-miterlimit="10" stroke-linecap="round" stroke-linejoin="round"/>
<path d="M9.00337 32.3255C6.31438 34.1872 4.45276 37.2898 4.14249 40.7028C2.69457 38.7378 1.86719 36.359 1.86719 33.7735C1.86719 29.8434 3.83222 26.327 6.83149 24.2585C7.3486 26.9475 8.07257 29.74 9.00337 32.3255Z" stroke="white" stroke-width="2" stroke-miterlimit="10" stroke-linecap="round" stroke-linejoin="round"/>
<path d="M15.2081 21.88C16.9788 21.88 18.4142 20.4446 18.4142 18.6739C18.4142 16.9032 16.9788 15.4678 15.2081 15.4678C13.4374 15.4678 12.002 16.9032 12.002 18.6739C12.002 20.4446 13.4374 21.88 15.2081 21.88Z" stroke="white" stroke-width="2" stroke-miterlimit="10" stroke-linecap="round" stroke-linejoin="round"/>
<path d="M19.1387 40.3921V46.2872" stroke="white" stroke-width="2" stroke-miterlimit="10" stroke-linecap="round" stroke-linejoin="round"/>
<path d="M11.2773 40.3923V46.2874" stroke="white" stroke-width="2" stroke-miterlimit="10" stroke-linecap="round" stroke-linejoin="round"/>
<path d="M15.207 43.8049V49.8035" stroke="white" stroke-width="2" stroke-miterlimit="10" stroke-linecap="round" stroke-linejoin="round"/>
</svg>
