<svg width="25" height="26" viewBox="0 0 25 26" fill="none" xmlns="http://www.w3.org/2000/svg">
<path d="M12.5261 7.58242C13.9535 7.58242 15.1106 6.42531 15.1106 4.99794C15.1106 3.57056 13.9535 2.41345 12.5261 2.41345C11.0988 2.41345 9.94165 3.57056 9.94165 4.99794C9.94165 6.42531 11.0988 7.58242 12.5261 7.58242Z" stroke="white" stroke-width="1.55069" stroke-linecap="round" stroke-linejoin="round"/>
<path d="M10.6647 6.85803L6.63287 10.8898" stroke="white" stroke-width="1.55069" stroke-linecap="round" stroke-linejoin="round"/>
<path d="M4.77241 15.336C6.19978 15.336 7.35689 14.1788 7.35689 12.7515C7.35689 11.3241 6.19978 10.167 4.77241 10.167C3.34504 10.167 2.18793 11.3241 2.18793 12.7515C2.18793 14.1788 3.34504 15.336 4.77241 15.336Z" stroke="white" stroke-width="1.55069" stroke-linecap="round" stroke-linejoin="round"/>
<path d="M7.3576 12.7516H17.6955" stroke="white" stroke-width="1.55069" stroke-linecap="round" stroke-linejoin="round"/>
<path d="M20.2799 15.336C21.7072 15.336 22.8643 14.1788 22.8643 12.7515C22.8643 11.3241 21.7072 10.167 20.2799 10.167C18.8525 10.167 17.6954 11.3241 17.6954 12.7515C17.6954 14.1788 18.8525 15.336 20.2799 15.336Z" stroke="white" stroke-width="1.55069" stroke-linecap="round" stroke-linejoin="round"/>
<path d="M14.3866 18.6425L18.4184 14.6107" stroke="white" stroke-width="1.55069" stroke-linecap="round" stroke-linejoin="round"/>
<path d="M12.5261 23.0896C13.9535 23.0896 15.1106 21.9325 15.1106 20.5051C15.1106 19.0778 13.9535 17.9207 12.5261 17.9207C11.0988 17.9207 9.94165 19.0778 9.94165 20.5051C9.94165 21.9325 11.0988 23.0896 12.5261 23.0896Z" stroke="white" stroke-width="1.55069" stroke-linecap="round" stroke-linejoin="round"/>
</svg>
