<svg width="26" height="25" viewBox="0 0 26 25" fill="none" xmlns="http://www.w3.org/2000/svg">
<path d="M18.1962 14.5697H18.2093" stroke="black" stroke-width="2.06759" stroke-linecap="round" stroke-linejoin="round"/>
<path d="M7.85869 7.33366H20.2642C20.8126 7.33366 21.3385 7.5515 21.7262 7.93924C22.114 8.32699 22.3318 8.85289 22.3318 9.40125V19.7392C22.3318 20.2875 22.114 20.8134 21.7262 21.2012C21.3385 21.5889 20.8126 21.8068 20.2642 21.8068H5.7911C5.24274 21.8068 4.71684 21.5889 4.32909 21.2012C3.94135 20.8134 3.72351 20.2875 3.72351 19.7392V5.26607C3.72351 4.71772 3.94135 4.19182 4.32909 3.80407C4.71684 3.41632 5.24274 3.19849 5.7911 3.19849H20.2642" stroke="black" stroke-width="1.55069" stroke-linecap="round" stroke-linejoin="round"/>
</svg>
