<svg width="40" height="40" viewBox="0 0 40 40" fill="none" xmlns="http://www.w3.org/2000/svg">
<g clip-path="url(#clip0_644_604)">
<path d="M19.9998 38.1598C30.0293 38.1598 38.1598 30.0293 38.1598 19.9998C38.1598 9.97035 30.0293 1.83984 19.9998 1.83984C9.97035 1.83984 1.83984 9.97035 1.83984 19.9998C1.83984 30.0293 9.97035 38.1598 19.9998 38.1598Z" stroke="#FFC700" stroke-width="2" stroke-linecap="round" stroke-linejoin="round"/>
<path d="M14.7148 14.5513C15.1418 13.3376 15.9845 12.3141 17.0937 11.6622C18.2029 11.0103 19.5071 10.7721 20.7752 10.9896C22.0432 11.2071 23.1934 11.8663 24.022 12.8506C24.8506 13.8349 25.304 15.0807 25.3021 16.3673C25.3021 19.9993 19.8541 21.8153 19.8541 21.8153" stroke="#FFC700" stroke-width="2" stroke-linecap="round" stroke-linejoin="round"/>
<path d="M20 29.0801H20.0182" stroke="#FFC700" stroke-width="2" stroke-linecap="round" stroke-linejoin="round"/>
</g>
<defs>
<clipPath id="clip0_644_604">
<rect width="40" height="40" fill="white" transform="translate(-0.000976562)"/>
</clipPath>
</defs>
</svg>
