<svg width="48" height="49" viewBox="0 0 48 49" fill="none" xmlns="http://www.w3.org/2000/svg">
<path d="M42.0835 30.417C42.0835 31.4631 41.6679 32.4664 40.9282 33.2062C40.1884 33.9459 39.1851 34.3615 38.139 34.3615H14.472L6.58301 42.2505V10.6945C6.58301 9.64835 6.99859 8.64505 7.73832 7.90532C8.47806 7.16558 9.48136 6.75 10.5275 6.75H38.139C39.1851 6.75 40.1884 7.16558 40.9282 7.90532C41.6679 8.64505 42.0835 9.64835 42.0835 10.6945V30.417Z" stroke="#EB00FF" stroke-width="2" stroke-linecap="round" stroke-linejoin="round"/>
<path d="M29.8556 15.6242C29.1752 14.945 28.2531 14.5635 27.2917 14.5635C26.3303 14.5635 25.4081 14.945 24.7278 15.6242L24.3333 16.2159L23.7416 15.6242C23.379 15.3134 22.9588 15.0771 22.5048 14.9287C22.0509 14.7803 21.5722 14.7228 21.096 14.7595C20.6198 14.7961 20.1556 14.9261 19.7297 15.1422C19.3038 15.3583 18.9246 15.6561 18.6138 16.0187C18.303 16.3813 18.0666 16.8016 17.9183 17.2555C17.7699 17.7094 17.7124 18.1881 17.749 18.6643C17.7856 19.1405 17.9157 19.6048 18.1317 20.0307C18.3478 20.4566 18.6456 20.8357 19.0082 21.1465L24.3333 26.4716L29.6584 21.1465C31.4334 19.3715 31.2362 17.0048 29.8556 15.6242Z" stroke="#EB00FF" stroke-width="2" stroke-linecap="round" stroke-linejoin="round"/>
</svg>
