<svg width="43" height="42" viewBox="0 0 43 42" fill="none" xmlns="http://www.w3.org/2000/svg">
<path d="M3.17285 2.83984V39.1598H39.4928" stroke="#00C820" stroke-width="2" stroke-linecap="round" stroke-linejoin="round"/>
<path d="M17.2965 16.9648H13.2609C12.1466 16.9648 11.2432 17.8682 11.2432 18.9826V29.0715C11.2432 30.1859 12.1466 31.0893 13.2609 31.0893H17.2965C18.4109 31.0893 19.3143 30.1859 19.3143 29.0715V18.9826C19.3143 17.8682 18.4109 16.9648 17.2965 16.9648Z" stroke="#00C820" stroke-width="2" stroke-linecap="round" stroke-linejoin="round"/>
<path d="M33.4391 6.87598H29.4035C28.2891 6.87598 27.3857 7.77937 27.3857 8.89375V29.0715C27.3857 30.1859 28.2891 31.0893 29.4035 31.0893H33.4391C34.5535 31.0893 35.4569 30.1859 35.4569 29.0715V8.89375C35.4569 7.77937 34.5535 6.87598 33.4391 6.87598Z" stroke="#00C820" stroke-width="2" stroke-linecap="round" stroke-linejoin="round"/>
</svg>
