<svg width="44" height="41" viewBox="0 0 44 41" fill="none" xmlns="http://www.w3.org/2000/svg">
<path d="M4.29193 35.5119C4.29193 33.047 4.93504 30.6248 6.15773 28.4846C7.38042 26.3443 9.14037 24.5601 11.2637 23.3083C13.387 22.0564 15.8002 21.3803 18.2648 21.3465C20.7295 21.3128 23.1603 21.9228 25.317 23.1161" stroke="#48BD37" stroke-width="2" stroke-linecap="round" stroke-linejoin="round"/>
<path d="M18.4584 21.3446C23.3484 21.3446 27.3125 17.3804 27.3125 12.4904C27.3125 7.60038 23.3484 3.63623 18.4584 3.63623C13.5683 3.63623 9.60419 7.60038 9.60419 12.4904C9.60419 17.3804 13.5683 21.3446 18.4584 21.3446Z" stroke="#48BD37" stroke-width="2" stroke-linecap="round" stroke-linejoin="round"/>
<path d="M30.8545 28.4272L39.7087 37.2814" stroke="#48BD37" stroke-width="2" stroke-linecap="round" stroke-linejoin="round"/>
<path d="M39.7087 28.4272L30.8545 37.2814" stroke="#48BD37" stroke-width="2" stroke-linecap="round" stroke-linejoin="round"/>
</svg>
